<?xml version="1.0" standalone="no"?>
<!DOCTYPE svg PUBLIC "-//W3C//DTD SVG 20010904//EN"
 "http://www.w3.org/TR/2001/REC-SVG-20010904/DTD/svg10.dtd">
<svg version="1.0" xmlns="http://www.w3.org/2000/svg"
 width="1615.000000pt" height="1118.000000pt" viewBox="0 0 1615.000000 1118.000000"
 preserveAspectRatio="xMidYMid meet">

<g transform="translate(0.000000,1118.000000) scale(0.100000,-0.100000)"
fill="#000000" stroke="none">
<path d="M10423 10494 c-2 -6 35 -74 82 -150 l86 -139 -2 -105 -3 -105 45 -6
c24 -3 57 -6 74 -5 l30 1 8 105 c9 117 2 101 132 279 42 57 75 105 73 106 -2
2 -39 4 -83 6 l-79 4 -49 -70 c-26 -38 -53 -71 -60 -73 -7 -1 -30 32 -52 73
-25 48 -47 77 -60 80 -48 10 -138 9 -142 -1z"/>
<path d="M10105 10483 c-47 -5 -118 -25 -142 -41 -42 -26 -66 -78 -60 -128 9
-80 76 -125 206 -141 39 -4 62 -13 79 -30 22 -22 23 -26 9 -46 -23 -35 -61
-44 -102 -24 -19 9 -35 23 -35 31 0 28 -23 34 -87 23 -60 -10 -63 -12 -63 -39
0 -19 13 -41 43 -72 51 -53 102 -65 215 -49 88 13 142 47 172 107 25 53 25 79
0 131 -26 54 -74 79 -184 96 -60 9 -92 19 -104 32 -16 18 -16 20 7 38 32 26
55 24 94 -11 34 -29 35 -29 96 -19 53 10 61 14 61 34 0 28 -33 71 -68 89 -30
15 -91 23 -137 19z"/>
<path d="M11090 10413 c-43 -23 -80 -76 -80 -117 0 -60 47 -112 155 -171 79
-44 96 -81 49 -112 -25 -16 -28 -16 -62 3 -38 20 -48 34 -56 75 -5 22 -13 26
-68 36 -35 6 -66 8 -70 6 -12 -6 -9 -82 3 -106 31 -59 92 -97 190 -118 118
-25 211 18 240 114 25 79 -23 148 -146 213 -73 37 -92 58 -75 79 15 18 59 19
82 1 10 -7 22 -24 27 -39 11 -28 59 -47 120 -47 33 0 34 0 28 40 -3 21 -15 53
-28 71 -49 69 -232 112 -309 72z"/>
<path d="M9310 10343 c-49 -8 -128 -45 -152 -71 -70 -77 -53 -173 39 -221 13
-6 67 -14 120 -18 102 -6 133 -19 133 -54 0 -25 -38 -49 -77 -49 -23 0 -43 9
-64 29 l-30 29 -57 -19 c-73 -25 -78 -31 -55 -65 47 -73 110 -99 202 -83 112
20 180 59 211 123 24 50 25 81 6 127 -29 70 -72 90 -216 98 -97 6 -105 8 -108
27 -3 24 12 40 49 49 19 5 33 0 56 -19 l31 -26 58 18 c67 20 75 35 43 76 -38
48 -100 64 -189 49z"/>
<path d="M11624 10292 c-19 -13 -56 -83 -51 -96 3 -8 31 -28 61 -46 54 -30 68
-53 47 -75 -15 -16 -141 -226 -141 -235 0 -4 -7 -13 -15 -20 -8 -7 -15 -18
-15 -25 0 -13 89 -72 117 -77 13 -2 41 37 108 149 49 84 95 154 101 157 7 2
35 -11 64 -30 28 -19 58 -34 65 -34 17 0 69 85 61 99 -3 5 -79 53 -168 106
-90 54 -177 106 -193 116 -17 10 -35 15 -41 11z"/>
<path d="M8868 10212 c-42 -15 -82 -32 -89 -39 -9 -9 -9 -42 1 -140 7 -71 11
-135 8 -143 -2 -7 -39 39 -81 104 -42 64 -83 119 -91 122 -13 5 -145 -37 -175
-55 -11 -7 -1 -46 52 -202 85 -249 90 -263 100 -270 11 -8 88 18 105 35 10 10
11 18 3 32 -18 32 -93 263 -89 274 3 9 99 -126 118 -165 16 -34 73 -105 83
-105 15 0 85 24 93 32 6 7 -13 276 -22 315 -4 13 -2 23 4 23 11 0 30 -46 82
-202 25 -77 36 -98 51 -98 28 0 99 31 99 43 0 14 -139 426 -151 450 -12 21 -7
21 -101 -11z"/>
<path d="M8236 9980 c-22 -11 -85 -38 -140 -61 -87 -36 -154 -66 -164 -74 -2
-2 18 -53 49 -121 10 -22 27 -65 39 -94 12 -29 29 -72 39 -94 10 -23 29 -65
41 -93 12 -29 28 -53 34 -53 9 0 160 61 271 109 11 5 38 17 60 26 22 10 43 22
47 28 9 14 -38 92 -54 91 -7 -1 -61 -22 -120 -47 -114 -48 -117 -48 -137 4
-12 32 -5 42 39 61 19 8 60 26 90 39 72 30 73 32 65 68 -14 63 -24 64 -138 15
l-102 -45 -17 22 c-36 43 -29 49 175 133 42 17 43 20 22 70 -18 42 -39 46 -99
16z"/>
<path d="M12145 9874 c-16 -13 -77 -61 -135 -104 -181 -138 -210 -161 -210
-168 0 -4 24 -37 53 -73 28 -37 85 -110 125 -163 40 -53 76 -96 80 -96 4 0 25
15 46 33 l39 33 -76 101 c-43 55 -77 104 -77 110 0 11 54 53 69 53 5 0 39 -40
76 -90 37 -49 69 -90 72 -90 11 0 73 53 73 63 0 5 -27 46 -61 89 -33 44 -63
86 -65 93 -3 7 8 22 24 34 l30 21 73 -97 c41 -53 79 -98 86 -100 7 -3 28 11
48 29 35 32 36 33 18 53 -10 11 -54 67 -97 125 -147 194 -139 188 -191 144z"/>
<path d="M7636 9710 c-109 -54 -203 -103 -209 -109 -7 -7 -3 -24 13 -56 13
-25 27 -48 31 -50 3 -3 34 9 68 25 34 17 67 28 72 24 6 -3 44 -75 85 -160 41
-84 79 -156 83 -159 13 -7 121 45 128 61 3 8 -29 85 -71 170 -42 85 -76 159
-76 164 0 5 29 23 65 40 36 17 65 35 65 41 0 10 -48 110 -53 108 -1 0 -91 -45
-201 -99z"/>
<path d="M7185 9481 c-140 -65 -198 -162 -145 -248 39 -64 106 -77 237 -46 85
20 123 10 123 -31 0 -56 -92 -86 -136 -45 l-22 20 -55 -35 c-31 -20 -58 -40
-61 -45 -8 -12 52 -63 93 -81 27 -11 42 -11 84 0 210 54 306 235 179 340 -46
38 -104 40 -223 8 -79 -20 -82 -20 -95 -3 -12 16 -12 22 0 39 22 34 61 43 96
23 29 -17 29 -17 84 18 31 20 56 42 56 50 0 21 -82 65 -121 65 -19 -1 -61 -13
-94 -29z"/>
<path d="M12460 9326 c-47 -12 -149 -38 -227 -57 -79 -19 -145 -39 -147 -46
-6 -15 22 -113 32 -113 4 0 52 12 107 26 170 43 178 45 186 42 18 -6 -11 -26
-124 -83 -116 -59 -161 -90 -153 -103 2 -4 9 -26 15 -49 l12 -43 159 0 c177 0
214 -6 154 -25 -22 -7 -75 -20 -119 -30 -44 -9 -98 -23 -120 -30 -39 -12 -40
-14 -38 -53 2 -53 19 -85 41 -77 16 4 189 46 382 92 36 8 69 19 74 23 8 8 -14
123 -34 174 l-10 26 -141 0 c-97 0 -140 3 -137 11 2 6 51 36 109 67 57 32 112
62 122 68 16 9 16 15 -5 100 -20 79 -32 105 -48 103 -3 0 -43 -11 -90 -23z"/>
<path d="M6858 9293 c-63 -42 -67 -52 -62 -155 2 -46 0 -68 -9 -71 -7 -2 -46
15 -87 38 -69 41 -75 43 -99 29 -75 -41 -105 -61 -109 -72 -2 -6 47 -35 115
-67 194 -91 183 -83 238 -172 27 -45 53 -85 56 -88 8 -7 129 64 129 77 0 5
-23 47 -51 93 l-52 84 8 171 c6 140 5 170 -7 170 -7 0 -39 -17 -70 -37z"/>
<path d="M6337 8963 c-37 -6 -144 -80 -180 -125 -23 -28 -29 -47 -30 -85 -2
-121 97 -162 261 -108 88 29 122 23 122 -23 0 -56 -74 -89 -128 -56 l-30 17
-51 -39 c-29 -21 -50 -45 -49 -53 4 -21 63 -59 103 -67 46 -8 102 10 173 55
83 54 117 107 117 181 -1 42 -6 64 -24 88 -49 69 -117 78 -251 32 -61 -21 -89
-26 -102 -19 -24 13 -23 25 8 56 25 25 52 27 94 9 17 -7 119 62 120 81 1 33
-90 66 -153 56z"/>
<path d="M12280 8599 c-73 -45 -94 -93 -95 -221 0 -80 2 -89 30 -130 54 -76
141 -101 210 -58 39 24 74 84 99 171 23 78 37 95 64 80 35 -19 29 -67 -13
-105 -33 -30 -35 -36 -35 -94 l0 -62 31 0 c79 0 132 85 132 215 1 101 -24 154
-89 186 -38 18 -47 19 -84 8 -55 -17 -90 -62 -124 -159 -38 -108 -66 -131
-106 -88 -36 39 -19 97 36 123 34 16 34 16 34 85 0 70 0 70 -27 70 -16 0 -44
-10 -63 -21z"/>
<path d="M5703 8521 c-90 -31 -182 -122 -197 -196 -9 -41 16 -98 54 -125 45
-32 114 -29 211 10 71 29 83 31 105 20 35 -19 33 -63 -5 -89 -33 -24 -52 -26
-96 -9 -35 12 -40 10 -103 -44 -38 -32 -34 -47 17 -76 76 -43 162 -23 257 61
62 54 86 99 86 157 0 64 -29 112 -86 140 -39 18 -50 19 -92 10 -27 -7 -58 -15
-69 -20 -11 -4 -42 -17 -70 -28 -68 -28 -107 -7 -72 39 24 31 56 42 88 29 27
-11 33 -9 79 26 27 21 50 46 50 55 0 10 -18 24 -49 38 -27 11 -51 21 -53 21
-2 -1 -26 -9 -55 -19z"/>
<path d="M5283 8212 c-40 -31 -72 -63 -73 -69 0 -7 25 -67 56 -133 31 -66 54
-125 52 -130 -2 -6 -53 28 -115 75 -61 47 -116 85 -121 85 -11 0 -146 -108
-150 -122 -4 -9 38 -66 140 -189 35 -42 86 -104 113 -138 28 -33 54 -61 58
-61 15 0 87 65 87 79 0 7 -15 30 -32 51 -90 101 -159 191 -156 200 1 5 59 -34
128 -86 69 -53 130 -98 137 -101 15 -6 93 55 93 73 0 7 -29 74 -65 149 -94
199 -89 203 45 35 52 -66 100 -120 106 -120 17 0 84 61 84 77 0 8 -35 55 -77
106 -43 51 -112 134 -152 185 -41 50 -77 92 -80 92 -4 -1 -38 -26 -78 -58z"/>
<path d="M12165 7836 c-61 -26 -104 -97 -126 -205 -16 -75 0 -137 45 -178 93
-88 189 -60 272 80 61 101 82 118 103 78 17 -32 -6 -79 -47 -99 -32 -15 -38
-24 -50 -75 -17 -70 -10 -82 45 -72 60 10 103 54 134 136 25 70 27 167 3 207
-19 34 -80 72 -114 72 -48 0 -101 -43 -156 -127 -59 -90 -95 -113 -121 -78
-32 44 7 125 60 125 14 0 29 6 34 13 14 18 36 115 28 127 -9 14 -74 12 -110
-4z"/>
<path d="M4810 7822 c-8 -10 -72 -69 -142 -131 -71 -62 -128 -118 -128 -125 0
-8 42 -60 93 -118 50 -57 121 -136 156 -176 35 -40 68 -72 73 -72 11 0 46 26
98 73 19 18 71 64 115 102 111 97 108 92 72 137 -17 21 -35 38 -41 38 -6 0
-45 -31 -86 -69 -41 -39 -86 -75 -99 -83 -21 -11 -25 -10 -47 15 -13 16 -24
33 -24 40 1 7 37 43 80 82 44 38 80 73 80 78 0 18 -42 67 -57 67 -8 0 -50 -31
-93 -70 -43 -38 -82 -70 -87 -70 -14 0 -43 34 -43 51 0 8 38 46 84 84 47 39
87 76 90 83 6 14 -50 82 -68 82 -6 0 -18 -8 -26 -18z"/>
<path d="M4298 7353 c-86 -82 -159 -156 -163 -165 -7 -19 51 -88 73 -88 7 0
33 20 59 45 25 25 51 45 56 45 6 0 68 -60 138 -132 l127 -133 51 50 c28 27 51
54 51 60 0 5 -26 37 -58 70 -31 33 -88 93 -126 133 l-69 72 51 49 c29 28 52
56 52 63 0 16 -61 78 -76 78 -5 0 -80 -66 -166 -147z"/>
<path d="M11892 7218 c-7 -18 -19 -45 -27 -61 -8 -15 -12 -33 -9 -40 2 -7 32
-23 67 -36 111 -43 117 -49 212 -194 50 -75 95 -137 101 -137 10 0 64 122 64
144 0 5 -22 39 -50 76 -27 37 -50 72 -50 77 0 5 41 15 91 22 l91 13 29 64 c26
57 36 94 25 94 -2 0 -72 -13 -154 -30 -83 -16 -159 -30 -170 -30 -18 0 -115
38 -154 60 -32 18 -53 11 -66 -22z"/>
<path d="M4005 7049 c-82 -43 -157 -136 -170 -209 -7 -45 18 -97 65 -128 43
-29 106 -26 166 9 21 12 58 33 82 47 52 29 89 24 98 -15 6 -22 1 -32 -29 -60
-36 -33 -70 -42 -82 -23 -14 22 -44 8 -83 -39 -23 -27 -42 -52 -42 -55 0 -17
70 -46 111 -46 58 0 97 19 158 79 116 113 124 239 20 309 -55 38 -118 28 -224
-37 -82 -51 -87 -52 -105 -36 -38 34 19 94 79 82 26 -6 34 -1 70 42 46 54 49
66 24 79 -43 23 -97 23 -138 1z"/>
<path d="M11770 6867 c-81 -43 -159 -191 -147 -278 10 -76 80 -139 154 -139
50 0 87 24 164 104 70 74 109 88 109 39 -1 -39 -23 -64 -62 -72 -27 -5 -38
-16 -60 -56 -34 -65 -35 -81 -1 -88 80 -15 145 29 197 135 47 92 50 160 9 209
-15 17 -42 38 -60 46 -57 23 -102 3 -193 -83 -65 -63 -84 -75 -107 -72 -24 3
-28 8 -31 40 -4 48 32 85 86 90 33 3 40 8 64 53 34 65 34 71 -3 84 -47 16 -71
14 -119 -12z"/>
<path d="M3726 6775 c-8 -9 -31 -35 -51 -59 l-36 -44 27 -87 c15 -47 24 -88
21 -92 -9 -9 -122 16 -196 43 -35 13 -83 24 -106 24 -36 0 -48 -5 -69 -30 -25
-30 -46 -86 -46 -124 0 -11 5 -45 12 -76 l11 -57 -64 -66 c-47 -48 -72 -67
-91 -67 -14 0 -47 -15 -74 -32 -37 -26 -58 -50 -89 -108 -22 -42 -63 -103 -91
-137 -29 -34 -57 -79 -64 -100 -6 -21 -20 -57 -31 -80 -10 -24 -19 -51 -19
-61 0 -10 -12 -34 -26 -53 -85 -113 -91 -203 -19 -269 39 -36 117 -35 171 2
21 16 56 40 77 55 l38 26 29 -28 c17 -16 30 -34 30 -42 0 -20 -40 -36 -77 -30
-32 6 -36 3 -68 -48 -19 -30 -35 -59 -35 -64 0 -38 126 -42 185 -6 22 13 43
25 47 25 4 0 -6 -29 -22 -64 -40 -88 -44 -132 -20 -231 23 -95 27 -259 8 -330
-10 -39 -9 -66 10 -183 40 -251 41 -226 -18 -282 -29 -27 -61 -52 -71 -55 -24
-8 -35 -45 -18 -56 21 -13 66 -11 107 7 20 9 51 17 67 20 56 7 65 31 65 174 0
118 2 135 30 210 34 93 36 113 15 163 -34 82 -5 198 89 350 15 24 43 21 57 -5
7 -13 31 -45 54 -73 44 -52 73 -101 78 -132 1 -10 6 -23 10 -30 8 -13 2 -58
-13 -99 -20 -52 -13 -106 23 -184 19 -41 39 -93 45 -115 6 -22 15 -59 21 -82
9 -31 8 -53 0 -86 -15 -53 -8 -73 28 -89 15 -7 40 -20 55 -31 35 -23 116 -20
132 5 8 14 -1 27 -52 78 l-62 60 0 228 c0 125 -5 272 -11 327 -5 55 -12 129
-14 165 -10 149 -19 200 -52 302 l-35 107 21 30 c12 17 68 72 124 123 145 131
197 192 197 231 0 39 -97 234 -141 284 -32 37 -54 80 -64 126 -7 34 -65 94
-97 101 -13 3 -53 10 -90 17 -77 13 -82 23 -52 94 9 21 13 49 9 65 -8 38 6 41
113 26 l90 -12 75 -67 c41 -37 79 -67 83 -67 14 0 94 97 93 112 0 7 -30 38
-66 68 -36 30 -71 69 -79 85 -7 17 -30 94 -51 173 -21 78 -41 142 -45 142 -3
0 -13 -7 -22 -15z m-42 -1062 c8 -16 26 -38 41 -51 28 -24 27 -50 -1 -83 -8
-8 -14 -22 -14 -30 0 -24 -46 -113 -68 -132 -11 -10 -31 -17 -44 -15 -22 3
-23 8 -26 88 -4 117 4 160 39 209 36 48 53 51 73 14z m-565 -33 c35 -44 51
-80 51 -117 0 -22 -3 -24 -22 -18 -13 4 -49 10 -81 12 -44 4 -61 10 -72 26
-21 31 -19 43 18 90 52 68 57 68 106 7z m-232 -197 c8 -19 -45 -64 -72 -60
-32 3 -32 50 1 76 20 16 30 18 46 10 10 -6 22 -17 25 -26z"/>
<path d="M14676 6418 c-219 -25 -361 -89 -492 -218 -145 -144 -201 -382 -134
-574 63 -183 223 -312 505 -407 153 -51 160 -53 285 -83 214 -53 310 -98 361
-173 41 -59 47 -113 21 -173 -44 -100 -129 -148 -274 -157 -84 -5 -99 -3 -152
19 -116 49 -198 149 -225 271 -14 66 -32 80 -88 72 -83 -11 -146 -16 -332 -25
-107 -6 -197 -13 -200 -16 -21 -20 40 -274 75 -315 8 -8 14 -20 14 -25 0 -11
70 -113 111 -161 68 -81 263 -177 409 -203 102 -18 234 -28 375 -29 349 -1
575 81 753 275 120 130 176 268 176 434 1 126 -11 182 -59 284 -51 110 -95
162 -189 225 -73 49 -216 121 -240 121 -8 0 -27 7 -42 15 -16 8 -37 15 -47 15
-10 0 -28 5 -39 11 -26 14 -99 33 -320 83 -232 53 -292 88 -304 178 -8 59 20
108 85 149 42 27 52 29 147 29 88 0 109 -3 157 -26 75 -34 129 -96 151 -173 9
-32 23 -62 31 -65 15 -5 179 1 205 9 8 2 85 7 170 11 204 9 209 9 220 20 11
11 -14 117 -42 181 -10 24 -18 47 -18 52 0 27 -74 132 -132 188 -166 160 -514
229 -922 181z"/>
<path d="M4350 6408 c-59 -40 -74 -71 -72 -139 3 -71 19 -115 63 -170 39 -50
33 -69 -36 -108 -62 -35 -105 -78 -105 -104 0 -11 9 -32 20 -48 20 -27 43 -95
56 -165 8 -41 -32 -88 -102 -119 -62 -27 -77 -59 -50 -100 19 -30 34 -31 75
-8 47 28 57 8 27 -58 -36 -78 -42 -169 -18 -299 11 -58 32 -139 47 -180 31
-89 37 -177 18 -270 -13 -59 -12 -76 7 -185 12 -66 28 -133 36 -149 21 -42 18
-58 -21 -116 -19 -29 -35 -60 -35 -70 0 -17 68 -105 94 -122 19 -13 60 -9 84
8 18 13 22 25 22 74 0 36 -8 76 -20 105 -19 44 -19 55 -9 164 6 64 9 157 6
206 -5 96 3 179 20 196 20 20 63 -87 63 -155 0 -34 6 -79 14 -100 9 -27 11
-49 5 -70 -18 -62 -11 -96 26 -133 29 -29 37 -33 55 -23 41 22 60 69 53 130
-3 30 -10 61 -16 68 -6 8 -7 37 -2 80 9 68 10 127 4 217 -3 50 32 270 52 333
25 77 13 243 -28 379 -23 74 -16 83 60 83 111 0 115 19 58 235 -56 209 -81
244 -182 254 -45 4 -65 11 -73 24 -9 14 -7 21 5 30 9 7 19 24 23 40 5 20 13
27 31 27 38 0 73 17 80 40 4 11 24 32 46 46 22 14 42 31 46 39 7 21 -5 65 -20
69 -7 2 -36 10 -66 19 -58 17 -83 12 -109 -25 -18 -25 -47 -22 -66 7 -22 33
-74 65 -107 65 -14 0 -41 -10 -59 -22z m115 -1468 c-5 -15 -10 -19 -17 -12 -5
5 -7 20 -3 32 5 15 10 19 17 12 5 -5 7 -20 3 -32z m-3 -55 c3 -14 0 -28 -6
-32 -6 -3 -8 -3 -4 2 4 4 3 15 -2 25 -5 10 -6 20 -3 24 9 9 10 8 15 -19z"/>
<path d="M12477 6419 c-204 -26 -369 -105 -480 -228 -162 -180 -200 -422 -99
-629 82 -168 301 -306 612 -386 14 -4 79 -20 145 -37 66 -17 134 -37 152 -45
17 -8 35 -14 41 -14 25 0 106 -45 137 -76 79 -79 95 -159 46 -236 -56 -89
-133 -128 -267 -135 -89 -5 -93 -5 -167 31 -106 51 -163 118 -197 231 -7 22
-19 55 -27 74 -14 33 -14 33 -61 26 -62 -10 -114 -14 -242 -20 -192 -8 -285
-17 -297 -27 -21 -17 -3 -116 44 -243 27 -74 104 -197 157 -253 88 -95 250
-172 436 -208 74 -14 144 -18 320 -18 238 0 343 14 477 64 81 30 202 107 267
169 145 139 227 336 212 512 -27 320 -202 506 -581 619 -16 5 -61 19 -100 30
-66 20 -190 51 -280 69 -145 30 -223 66 -264 122 -47 63 -18 146 68 200 42 27
52 29 148 29 95 0 108 -2 163 -30 71 -36 132 -110 150 -183 7 -26 16 -49 20
-52 9 -5 464 22 550 33 47 6 55 10 53 27 -4 40 -32 146 -41 158 -5 7 -12 24
-15 38 -22 91 -160 244 -267 296 -100 48 -185 74 -295 89 -110 15 -411 16
-518 3z"/>
<path d="M1046 6384 c-3 -9 -6 -488 -6 -1064 0 -828 3 -1051 13 -1057 18 -12
587 -13 618 -2 l26 10 -1 418 c-1 334 2 421 12 434 12 14 57 16 378 17 l364 0
0 -22 c0 -15 33 -56 102 -125 57 -57 97 -103 89 -103 -7 0 -69 16 -137 36 -68
20 -129 34 -136 31 -17 -6 -110 -156 -103 -167 2 -4 64 -43 137 -86 73 -43
163 -97 201 -121 37 -24 73 -43 80 -43 14 0 67 74 67 93 0 7 -61 48 -135 92
-174 103 -180 116 -26 66 48 -16 116 -37 151 -47 l63 -18 24 30 c48 60 46 65
-78 190 -63 63 -116 119 -118 125 -4 13 42 -10 116 -58 29 -18 77 -48 106 -67
30 -19 59 -31 65 -27 14 8 62 79 62 91 0 8 -75 57 -294 189 -83 50 -127 71
-143 68 l-22 -4 -3 146 -3 146 -400 3 c-241 1 -403 6 -409 12 -5 5 -11 83 -12
172 -2 128 1 168 12 186 l14 22 465 0 c299 0 466 4 470 10 3 6 6 103 6 217 -1
155 -4 209 -13 215 -7 4 -369 8 -804 8 -713 0 -792 -2 -798 -16z"/>
<path d="M4884 6388 c-10 -16 -10 -480 0 -496 5 -9 87 -12 325 -12 233 0 320
-3 329 -12 9 -9 12 -200 12 -799 0 -671 2 -790 14 -802 12 -12 67 -14 308 -14
161 0 301 4 311 9 16 8 17 57 17 801 0 604 3 796 12 805 9 9 96 12 329 12 183
0 320 4 324 9 7 13 8 488 0 501 -10 16 -1971 14 -1981 -2z"/>
<path d="M7222 6388 c-9 -9 -12 -259 -12 -1065 0 -992 1 -1053 18 -1061 25
-13 531 -13 565 0 l27 10 -1 558 c-1 307 2 563 5 569 4 5 13 8 21 4 12 -4 104
-134 205 -288 8 -13 51 -76 96 -142 96 -139 213 -312 350 -514 55 -80 109
-158 121 -175 l21 -29 284 0 c156 0 291 3 301 7 16 7 17 65 15 1070 l-3 1063
-289 3 c-159 1 -293 -1 -298 -6 -4 -4 -8 -260 -8 -567 -1 -546 -3 -585 -31
-585 -5 0 -47 57 -93 128 -46 70 -136 204 -200 297 -141 205 -295 433 -389
575 -39 58 -81 117 -95 133 l-26 27 -286 0 c-209 0 -289 -3 -298 -12z"/>
<path d="M9696 6391 c-3 -5 -6 -483 -6 -1062 -1 -998 0 -1055 17 -1067 10 -7
36 -12 58 -10 34 2 42 -1 52 -22 7 -14 13 -32 13 -40 0 -9 18 -34 40 -55 38
-37 44 -40 98 -39 56 1 107 22 184 76 33 23 81 21 86 -4 2 -10 -9 -29 -23 -44
-22 -22 -32 -25 -63 -20 -35 6 -40 3 -79 -41 -24 -27 -43 -53 -43 -59 0 -17
47 -34 96 -34 54 0 101 27 162 94 51 55 72 100 72 153 l0 38 542 -1 c416 -1
548 1 563 11 19 12 20 20 15 236 l-5 224 -291 3 -291 2 -5 51 c-6 60 -31 97
-83 123 -33 17 -44 18 -82 7 -25 -6 -70 -28 -101 -49 -90 -60 -108 -66 -132
-42 -27 27 -25 46 10 82 28 27 34 29 78 23 44 -6 48 -4 64 22 9 15 26 38 37
50 26 28 19 46 -23 61 -103 38 -204 -20 -295 -168 -11 -19 -22 -30 -22 -25 -1
6 -1 71 0 145 2 110 6 137 19 148 11 8 57 12 147 12 l132 0 44 -32 c24 -17 67
-50 95 -72 28 -23 66 -52 84 -66 18 -14 59 -46 91 -72 31 -27 61 -48 65 -48 7
1 79 88 118 145 7 9 -3 29 -33 69 -24 31 -41 61 -38 68 3 10 26 12 88 8 46 -3
112 -4 147 -1 58 3 64 6 74 30 6 16 7 66 3 128 -3 57 -3 108 0 113 5 8 15 6
31 -5 14 -9 28 -14 32 -11 4 2 30 37 57 78 27 40 53 78 58 83 32 40 117 165
117 172 -1 4 -55 46 -120 92 -112 78 -134 101 -111 116 6 3 9 52 7 111 -1 58
1 107 5 109 7 5 215 -117 236 -138 9 -9 4 -25 -23 -70 -19 -32 -34 -62 -34
-67 0 -13 72 -60 92 -60 9 0 23 10 29 23 6 12 58 97 115 190 57 92 104 171
104 176 0 11 -76 61 -93 61 -8 0 -31 -27 -51 -60 -21 -33 -41 -60 -45 -60 -4
0 -27 13 -52 28 -24 16 -91 57 -149 92 -58 34 -117 71 -132 81 -26 18 -63 19
-887 19 -487 0 -862 -4 -865 -9z m1404 -570 l-82 -121 23 -19 c30 -25 68 -46
72 -40 2 2 37 50 77 107 40 56 74 102 76 102 8 0 74 -45 74 -51 0 -3 -31 -50
-68 -105 l-68 -99 -93 1 c-69 1 -96 6 -110 18 -23 21 -34 20 -56 -4 -18 -20
-29 -21 -288 -19 -149 0 -281 5 -294 10 -23 8 -23 10 -23 168 0 120 3 161 13
170 15 12 805 21 821 9 4 -3 -29 -61 -74 -127z m372 -108 c10 -9 18 -20 18
-25 0 -10 -79 -119 -95 -130 -17 -13 -25 -9 -25 12 0 11 -7 20 -15 20 -22 0
-19 7 26 77 43 66 60 74 91 46z m-553 -559 c36 -30 58 -64 41 -64 -13 0 -90
69 -90 81 0 16 18 10 49 -17z m-161 -407 c3 -14 -4 -17 -32 -17 -39 0 -47 13
-18 29 24 15 46 9 50 -12z"/>
<path d="M2148 4578 c-84 -168 -128 -258 -128 -266 0 -8 424 -222 440 -222 14
0 191 356 184 372 -5 13 -67 48 -84 48 -6 0 -34 -49 -65 -109 -30 -60 -59
-112 -64 -115 -12 -8 -81 24 -81 37 0 5 23 54 51 108 28 55 50 101 48 103 -80
54 -86 51 -144 -61 -27 -53 -55 -99 -61 -100 -6 -2 -22 5 -35 16 l-24 19 53
106 c28 59 52 111 52 116 0 8 -70 50 -85 50 -2 0 -28 -46 -57 -102z"/>
<path d="M1966 4202 c-2 -4 -32 -79 -66 -167 -34 -88 -70 -179 -81 -202 -27
-60 -24 -69 21 -87 66 -26 75 -23 96 40 10 30 25 60 32 66 12 10 139 -33 320
-109 l33 -14 25 57 c14 31 24 66 22 77 -2 16 -37 33 -168 84 -91 35 -166 66
-169 68 -2 2 8 34 23 70 14 36 26 67 26 70 0 13 -107 57 -114 47z"/>
<path d="M9531 4040 l-53 -49 30 -38 c17 -21 48 -55 70 -77 34 -32 42 -48 51
-100 16 -98 21 -127 31 -195 5 -36 14 -69 19 -74 12 -12 121 82 121 105 0 10
-7 51 -17 93 -9 41 -14 78 -10 81 3 3 45 -5 93 -19 l87 -26 61 59 c43 41 56
60 46 63 -30 9 -96 26 -140 36 -119 27 -170 40 -183 48 -8 4 -43 38 -77 76
-34 37 -65 67 -69 67 -4 0 -31 -22 -60 -50z"/>
<path d="M9295 3792 c-45 -8 -92 -38 -151 -96 -89 -88 -105 -162 -51 -243 49
-74 134 -80 256 -19 39 20 82 36 96 36 23 0 26 -4 23 -27 -2 -14 -15 -35 -31
-47 -23 -17 -32 -19 -58 -9 -28 11 -33 9 -80 -34 -27 -26 -48 -51 -46 -56 5
-17 70 -47 102 -47 66 0 181 86 220 163 28 58 31 86 11 125 -46 89 -119 100
-252 39 -91 -41 -106 -44 -128 -21 -23 23 -20 42 13 75 30 29 83 40 96 19 13
-21 43 -8 89 39 l48 48 -30 21 c-32 23 -95 40 -127 34z"/>
<path d="M1827 3623 c-71 -11 -137 -131 -137 -251 0 -81 22 -124 76 -147 84
-35 131 -10 208 109 63 97 88 117 117 90 28 -26 24 -70 -10 -105 -16 -16 -39
-29 -50 -29 -27 0 -40 -26 -43 -91 l-3 -54 49 3 c87 4 137 60 170 189 21 80
20 104 -5 157 -28 60 -81 96 -141 96 -62 0 -104 -31 -155 -115 -75 -125 -90
-137 -113 -94 -17 31 6 78 47 95 22 10 35 23 39 42 3 15 10 41 14 59 8 31 -3
55 -24 52 -6 -1 -24 -4 -39 -6z"/>
<path d="M8804 3409 c-10 -11 -31 -28 -46 -37 -16 -9 -28 -23 -28 -32 0 -15
89 -133 193 -255 15 -18 27 -37 27 -41 0 -5 -25 -29 -55 -52 -30 -24 -55 -48
-55 -53 0 -14 61 -89 72 -89 8 0 220 168 305 241 17 15 40 32 49 37 16 9 15
14 -17 56 -18 25 -40 46 -48 46 -7 0 -35 -18 -61 -40 -26 -22 -53 -40 -58 -40
-6 0 -37 33 -69 72 -32 40 -66 82 -76 93 -10 11 -35 41 -55 68 -40 53 -51 56
-78 26z"/>
<path d="M8484 3157 c-43 -34 -48 -37 -184 -139 -47 -34 -88 -67 -92 -73 -7
-10 28 -62 54 -79 12 -7 37 7 111 62 52 40 100 72 107 72 13 0 31 -19 50 -52
9 -15 -5 -29 -85 -89 -52 -39 -95 -73 -95 -76 0 -8 55 -73 63 -73 4 0 46 29
92 65 47 36 91 65 98 65 7 0 20 -13 29 -28 l17 -29 -99 -73 c-55 -41 -100 -79
-100 -85 0 -6 13 -26 28 -45 l29 -34 37 23 c20 13 42 28 49 35 6 6 60 47 119
90 59 43 112 84 118 91 8 9 -27 63 -137 209 -80 108 -151 196 -157 195 -6 0
-29 -14 -52 -32z"/>
<path d="M1626 3138 c-3 -13 -7 -48 -10 -80 -7 -63 -6 -64 97 -135 26 -18 47
-36 47 -41 0 -4 -37 -26 -82 -48 l-83 -39 -9 -78 c-5 -42 -7 -80 -4 -82 3 -3
73 31 157 75 l152 81 95 -12 c63 -8 98 -9 104 -3 15 15 25 140 13 147 -6 4
-51 9 -99 13 -101 7 -95 4 -256 136 -58 48 -109 88 -112 88 -3 0 -8 -10 -10
-22z"/>
<path d="M8065 2849 c-22 -17 -42 -35 -44 -40 -3 -10 124 -204 162 -246 25
-28 19 -50 -8 -26 -17 15 -91 82 -219 196 -26 22 -29 22 -76 -9 -40 -27 -48
-49 -31 -82 22 -39 99 -266 94 -275 -3 -4 -45 53 -94 127 -48 75 -91 136 -95
136 -18 0 -105 -64 -101 -74 4 -10 212 -315 258 -378 22 -31 32 -34 51 -15 7
7 41 32 76 55 34 24 62 45 62 47 0 7 -70 196 -82 221 -5 12 -8 29 -6 39 3 15
6 15 28 -7 14 -13 62 -57 107 -97 l83 -74 86 57 85 58 -17 26 c-71 111 -266
392 -272 391 -4 0 -25 -14 -47 -30z"/>
<path d="M1872 2523 c-58 -28 -81 -81 -97 -221 -7 -68 -13 -82 -34 -82 -47 0
-58 80 -16 115 25 20 25 20 12 84 -8 36 -19 67 -26 69 -19 6 -80 -40 -96 -74
-42 -89 -2 -269 70 -314 65 -40 108 -36 164 14 30 28 40 54 57 155 14 86 33
121 65 121 10 0 26 -11 35 -25 23 -36 11 -88 -28 -118 l-30 -24 13 -64 c9 -41
20 -65 29 -67 27 -5 98 50 116 90 21 47 15 182 -10 243 -41 98 -138 141 -224
98z"/>
<path d="M7454 2450 c-63 -31 -116 -76 -146 -125 -21 -36 -24 -105 -4 -143 44
-84 112 -99 257 -58 80 23 94 25 107 12 38 -38 -30 -87 -90 -66 -32 12 -37 11
-87 -25 -28 -21 -50 -43 -48 -49 8 -24 71 -56 111 -56 91 0 229 97 252 177 19
66 -25 143 -91 162 -36 10 -120 -1 -185 -24 -55 -20 -66 -19 -90 5 -19 19 -19
23 -5 49 8 16 28 34 46 40 27 9 39 8 71 -9 l39 -20 54 40 c31 23 52 46 49 53
-2 7 -23 25 -46 40 -58 37 -116 36 -194 -3z"/>
<path d="M2064 1631 c-81 -49 -95 -126 -43 -236 18 -36 36 -68 40 -71 12 -7
11 -51 -1 -59 -11 -7 -60 38 -60 55 0 6 4 20 10 30 8 15 1 26 -37 64 -25 25
-52 46 -59 46 -21 0 -52 -71 -48 -108 7 -62 73 -147 149 -194 64 -39 163 -13
197 52 25 47 16 95 -36 192 -32 61 -39 81 -30 95 15 25 25 25 62 3 26 -16 32
-26 32 -54 0 -19 -4 -38 -10 -41 -5 -3 -10 -10 -10 -14 0 -13 93 -101 107
-101 19 0 53 74 53 115 0 20 -9 54 -21 77 -28 56 -106 136 -147 154 -48 20
-111 18 -148 -5z"/>
<path d="M5029 1382 c-89 -32 -107 -44 -143 -96 -38 -56 -36 -119 4 -168 40
-48 84 -62 184 -56 94 6 106 3 106 -23 0 -30 -43 -45 -71 -25 -13 9 -33 16
-44 16 -35 0 -125 -30 -125 -41 0 -22 42 -69 75 -85 38 -18 65 -16 165 13 51
14 74 28 108 62 39 40 42 47 39 90 -3 56 -30 99 -74 117 -19 8 -69 14 -122 14
-106 0 -121 4 -121 36 0 45 77 60 116 23 22 -21 24 -21 73 -5 27 9 57 16 65
16 24 0 19 29 -10 67 -55 73 -113 84 -225 45z"/>
<path d="M2432 1348 c-47 -102 -81 -177 -107 -238 -15 -36 -36 -81 -46 -101
-22 -42 -24 -69 -7 -69 7 0 38 -12 68 -27 30 -14 63 -30 72 -35 29 -13 32 -11
94 68 32 42 66 86 76 98 26 33 30 15 14 -65 -8 -41 -17 -95 -21 -121 l-6 -46
75 -36 c83 -40 114 -45 123 -18 3 9 19 46 35 82 17 36 39 85 50 110 10 25 28
63 38 85 56 122 61 155 23 155 -10 0 -29 7 -41 16 -13 9 -29 13 -36 11 -13 -5
-40 -57 -80 -149 -8 -21 -20 -38 -26 -38 -13 0 -13 4 5 97 20 106 19 128 -7
145 -45 29 -79 31 -104 7 -13 -12 -24 -28 -24 -36 0 -7 -4 -13 -9 -13 -5 0
-24 -20 -42 -45 -63 -85 -69 -90 -69 -70 0 10 13 45 29 79 48 102 59 132 53
143 -8 12 -86 53 -101 53 -5 0 -18 -19 -29 -42z"/>
<path d="M4585 1250 c-11 -4 -29 -6 -40 -4 -11 3 -29 -2 -40 -10 -18 -13 -19
-17 -6 -63 25 -89 30 -146 15 -177 -8 -16 -14 -36 -14 -45 0 -9 -7 -24 -15
-35 -7 -10 -22 -44 -31 -75 -9 -31 -21 -60 -26 -65 -4 -6 -8 -21 -8 -34 0 -21
3 -23 23 -17 12 4 48 13 80 20 33 8 60 15 61 17 2 2 11 30 20 63 10 33 19 66
22 73 6 22 24 13 72 -38 38 -39 55 -50 79 -50 46 0 131 21 136 34 2 6 -51 61
-117 123 -106 97 -123 118 -134 157 -6 26 -12 61 -12 79 0 50 -21 66 -65 47z"/>
<path d="M2977 1139 c-3 -19 -9 -44 -13 -56 -5 -19 -1 -22 48 -31 29 -6 85
-14 123 -19 63 -7 70 -10 73 -31 8 -53 -31 -63 -143 -37 -49 12 -70 13 -80 5
-14 -12 -31 -88 -21 -97 3 -3 51 -12 108 -19 104 -14 124 -24 107 -56 -12 -22
-30 -22 -142 -2 -50 9 -92 13 -97 8 -5 -5 -11 -30 -15 -55 -9 -61 -32 -53 263
-89 41 -5 82 -12 92 -15 29 -9 48 20 54 82 7 60 15 118 40 282 8 52 13 98 11
101 -9 14 -180 42 -341 57 l-61 5 -6 -33z"/>
<path d="M4043 1157 c-18 -7 -50 -29 -71 -49 -46 -43 -57 -88 -40 -156 15 -61
63 -91 160 -102 77 -9 128 -24 128 -38 0 -35 -80 -44 -103 -12 -13 19 -20 20
-78 13 -55 -7 -64 -11 -67 -30 -4 -29 24 -70 61 -90 37 -19 138 -20 208 -2 93
24 144 114 108 191 -18 41 -91 79 -171 89 -94 12 -106 16 -114 41 -8 26 12 46
54 54 28 6 37 2 66 -30 31 -32 38 -35 61 -26 14 5 42 10 61 10 31 0 34 3 34
29 0 34 -39 85 -81 106 -34 18 -169 19 -216 2z"/>
<path d="M3581 1091 c-9 -20 -11 -72 -7 -169 4 -106 3 -143 -7 -149 -6 -4 -39
-8 -72 -8 l-60 0 -3 -59 c-2 -35 1 -62 8 -66 6 -3 45 -5 88 -4 42 1 133 3 202
5 69 1 133 6 142 10 12 7 17 21 16 52 -2 59 -11 67 -79 67 -32 0 -60 4 -64 9
-6 11 -14 112 -16 221 -2 121 -1 120 -74 120 -60 0 -63 -1 -74 -29z"/>
</g>
</svg>
